<?xml version="1.0" encoding="UTF-8"?>
<svg width="101px" height="59px" viewBox="0 0 101 59" version="1.1" xmlns="http://www.w3.org/2000/svg" xmlns:xlink="http://www.w3.org/1999/xlink">
    <title>arrow</title>
    <g id="email" stroke="none" stroke-width="1" fill="none" fill-rule="evenodd">
        <g id="Artboard" transform="translate(-792.000000, -297.000000)" fill="#FFFFFF" fill-rule="nonzero">
            <path id="arrow" d="M837.297192,297 C837.843564,297 838.382433,297.12721 838.871123,297.371554 L838.871123,297.371554 L890.831522,323.351754 C892.570037,324.221012 893.27471,326.335029 892.405452,328.073545 C892.064901,328.754648 891.512625,329.306923 890.831522,329.647475 L890.831522,329.647475 L838.871123,355.627675 C837.132607,356.496932 835.01859,355.79226 834.149332,354.053744 C833.904987,353.565055 833.777778,353.026186 833.777778,352.479814 L833.777778,352.479814 L833.777,332 L797.5,332 C794.462434,332 792,329.537566 792,326.5 C792,323.536521 794.34378,321.120461 797.278793,321.004367 L797.5,321 L833.777,321 L833.777778,300.519415 C833.777778,298.640486 835.250178,297.105455 837.104092,297.005208 Z"></path>
        </g>
    </g>
</svg>