<?xml version="1.0" encoding="UTF-8"?>
<svg width="223px" height="359px" viewBox="0 0 223 359" version="1.1" xmlns="http://www.w3.org/2000/svg" xmlns:xlink="http://www.w3.org/1999/xlink">
    <title>Lamp</title>
    <g id="kitchen" stroke="none" stroke-width="1" fill="none" fill-rule="evenodd">
        <g id="Artboard" transform="translate(-15.000000, -330.000000)">
            <g id="Lamp" transform="translate(128.000000, 508.000000) scale(-1, 1) translate(-128.000000, -508.000000) translate(18.000000, 330.000000)">
                <path d="M84,36.5449419 L103.051323,20.3881722 C106.036415,17.8566191 110.414895,17.8566191 113.399987,20.3881722 L162.348664,61.8998561 C165.933339,64.9398953 168,69.402342 168,74.1025264 L168,350 L168,350" id="Body" stroke="#201210" stroke-width="13"></path>
                <rect id="Lamp-Base" stroke="#D03100" stroke-width="5" fill="#D42C00" stroke-linejoin="round" x="116" y="343" width="104" height="13" rx="3"></rect>
                <g id="Lamp-Top" transform="translate(60.376154, 60.355339) rotate(45.000000) translate(-60.376154, -60.355339) translate(18.376154, 18.355339)">
                    <path d="M36.1898628,0.686291501 L48.1898628,0.686291501 C67.7959715,0.686291501 83.6898628,16.5801829 83.6898628,36.1862915 L83.6898628,77.6862915 L83.6898628,77.6862915 L0.689862838,77.6862915 L0.689862838,36.1862915 C0.689862838,16.5801829 16.5837542,0.686291501 36.1898628,0.686291501 Z" id="Lamp" fill="#DA4000"></path>
                    <ellipse id="Lamp" fill="#F2F2F2" cx="41.8363094" cy="75.6022907" rx="41.5" ry="8"></ellipse>
                </g>
            </g>
        </g>
    </g>
</svg>